<svg version="1.1" viewBox="0.0 0.0 528.1889763779527 524.4094488188977" fill="none" stroke="none" stroke-linecap="square" stroke-miterlimit="10" xmlns:xlink="http://www.w3.org/1999/xlink" xmlns="http://www.w3.org/2000/svg"><clipPath id="p.0"><path d="m0 0l528.18896 0l0 524.4094l-528.18896 0l0 -524.4094z" clip-rule="nonzero"/></clipPath><g clip-path="url(#p.0)"><path fill="#000000" fill-opacity="0.0" d="m0 0l528.18896 0l0 524.4094l-528.18896 0z" fill-rule="evenodd"/><path fill="#000000" d="m288.10153 379.3182l0 0c0 13.259247 -10.748749 24.007996 -24.007996 24.007996l0 0l0 0c-6.3673096 0 -12.473846 -2.529419 -16.976212 -7.0317993c-4.5023804 -4.5023804 -7.031784 -10.608887 -7.031784 -16.976196l0 -331.30142c0 -13.259247 10.748749 -24.007992 24.007996 -24.007992l0 0l0 0c13.259247 0 24.007996 10.748745 24.007996 24.007992z" fill-rule="evenodd"/><path stroke="#000000" stroke-width="1.0" stroke-linejoin="round" stroke-linecap="butt" d="m288.10153 379.3182l0 0c0 13.259247 -10.748749 24.007996 -24.007996 24.007996l0 0l0 0c-6.3673096 0 -12.473846 -2.529419 -16.976212 -7.0317993c-4.5023804 -4.5023804 -7.031784 -10.608887 -7.031784 -16.976196l0 -331.30142c0 -13.259247 10.748749 -24.007992 24.007996 -24.007992l0 0l0 0c13.259247 0 24.007996 10.748745 24.007996 24.007992z" fill-rule="evenodd"/><path fill="#000000" d="m280.5961 374.1292l0 0c9.372498 9.372498 9.372498 24.568329 0 33.940826l0 0l0 0c-4.500824 4.500824 -10.605286 7.029358 -16.970398 7.029358c-6.365143 0 -12.469574 -2.528534 -16.970413 -7.029358l-145.87418 -145.87418c-9.37249 -9.372498 -9.37249 -24.568314 0 -33.94081l0 0l0 0c9.37249 -9.372498 24.568306 -9.372498 33.940804 0z" fill-rule="evenodd"/><path stroke="#000000" stroke-width="1.0" stroke-linejoin="round" stroke-linecap="butt" d="m280.5961 374.1292l0 0c9.372498 9.372498 9.372498 24.568329 0 33.940826l0 0l0 0c-4.500824 4.500824 -10.605286 7.029358 -16.970398 7.029358c-6.365143 0 -12.469574 -2.528534 -16.970413 -7.029358l-145.87418 -145.87418c-9.37249 -9.372498 -9.37249 -24.568314 0 -33.94081l0 0l0 0c9.37249 -9.372498 24.568306 -9.372498 33.940804 0z" fill-rule="evenodd"/><path fill="#000000" d="m280.5961 408.07004l0 0c-9.372498 9.372467 -24.568298 9.372467 -33.94081 0l0 0l0 0c-4.500824 -4.5008545 -7.029358 -10.605286 -7.029358 -16.970428c0 -6.3651123 2.528534 -12.469543 7.029358 -16.970398l145.87419 -145.87416c9.372467 -9.372498 24.568298 -9.372498 33.940796 0l0 0l0 0c9.372498 9.372498 9.372498 24.568314 0 33.94081z" fill-rule="evenodd"/><path stroke="#000000" stroke-width="1.0" stroke-linejoin="round" stroke-linecap="butt" d="m280.5961 408.07004l0 0c-9.372498 9.372467 -24.568298 9.372467 -33.94081 0l0 0l0 0c-4.500824 -4.5008545 -7.029358 -10.605286 -7.029358 -16.970428c0 -6.3651123 2.528534 -12.469543 7.029358 -16.970398l145.87419 -145.87416c9.372467 -9.372498 24.568298 -9.372498 33.940796 0l0 0l0 0c9.372498 9.372498 9.372498 24.568314 0 33.94081z" fill-rule="evenodd"/><path fill="#000000" d="m429.73145 445.93512l0 0c13.26355 0 24.015747 10.752197 24.015747 24.015747l0 0l0 0c0 6.3693542 -2.5302124 12.477875 -7.034027 16.98169c-4.503845 4.5038147 -10.612335 7.0340576 -16.98172 7.0340576l-331.27557 0c-13.263535 0 -24.015747 -10.752228 -24.015747 -24.015747l0 0l0 0c0 -13.26355 10.752213 -24.015747 24.015747 -24.015747z" fill-rule="evenodd"/><path stroke="#000000" stroke-width="1.0" stroke-linejoin="round" stroke-linecap="butt" d="m429.73145 445.93512l0 0c13.26355 0 24.015747 10.752197 24.015747 24.015747l0 0l0 0c0 6.3693542 -2.5302124 12.477875 -7.034027 16.98169c-4.503845 4.5038147 -10.612335 7.0340576 -16.98172 7.0340576l-331.27557 0c-13.263535 0 -24.015747 -10.752228 -24.015747 -24.015747l0 0l0 0c0 -13.26355 10.752213 -24.015747 24.015747 -24.015747z" fill-rule="evenodd"/></g></svg>