<svg version="1.1" viewBox="0.0 0.0 480.26771653543307 420.3333333333333" fill="none" stroke="none" stroke-linecap="square" stroke-miterlimit="10" xmlns:xlink="http://www.w3.org/1999/xlink" xmlns="http://www.w3.org/2000/svg"><clipPath id="p.0"><path d="m0 0l480.26773 0l0 420.33334l-480.26773 0l0 -420.33334z" clip-rule="nonzero"/></clipPath><g clip-path="url(#p.0)"><path fill="#000000" fill-opacity="0.0" d="m0 0l480.26773 0l0 420.33334l-480.26773 0z" fill-rule="evenodd"/><path fill="#ffffff" d="m63.27659 109.22527c-3.2589722 -23.148392 7.4405365 -46.06394 27.558357 -59.022785c20.11782 -12.958851 46.125732 -13.688313 66.9877 -1.8788528l0 0c7.3895416 -13.460384 20.91504 -22.753893 36.485077 -25.069294c15.570053 -2.315401 31.35579 2.6192722 42.582153 13.311314l0 0c6.2951202 -12.203838 18.65593 -20.40328 32.69609 -21.68868c14.040131 -1.2854004 27.772552 4.5251617 36.324158 15.369755l0 0c11.373352 -12.935286 29.468475 -18.38152 46.455597 -13.982105c16.987091 4.399414 29.815186 17.854311 32.933533 34.542725l0 0c13.933594 3.673748 25.540009 13.012764 31.820496 25.60418c6.280487 12.591408 6.618988 27.200043 0.92803955 40.051537c13.721588 17.260902 16.93158 40.2611 8.432068 60.417183c-8.499542 20.156082 -27.43161 34.43976 -49.730988 37.520554c-0.15716553 18.917847 -10.8905945 36.276596 -28.06308 45.38533c-17.172485 9.108704 -38.102448 8.545013 -54.72238 -1.4738464c-7.079315 22.657318 -27.005646 39.3284 -51.169907 42.810577c-24.164276 3.4822083 -48.23456 -6.848694 -61.81143 -26.529327l0 0c-16.64235 9.7005005 -36.611847 12.494934 -55.403725 7.75296c-18.791878 -4.7420044 -34.823166 -16.621002 -44.477486 -32.95729l0 0c-17.006256 1.9236908 -33.449005 -6.592987 -41.16782 -21.323257c-7.718811 -14.730255 -5.0705566 -32.53842 6.6304626 -44.58641l0 0c-15.170847 -8.630615 -22.911953 -25.756714 -19.186628 -42.447662c3.7253246 -16.690964 18.072908 -29.164543 35.56102 -30.916237z" fill-rule="evenodd"/><path fill="#ffffff" d="m385.68546 386.36032c0 4.4148865 -3.5789795 7.993866 -7.993866 7.993866c-4.4148865 0 -7.993866 -3.5789795 -7.993866 -7.993866c0 -4.414917 3.5789795 -7.9938965 7.993866 -7.9938965c4.4148865 0 7.993866 3.5789795 7.993866 7.9938965z" fill-rule="evenodd"/><path fill="#ffffff" d="m375.40564 358.1682c0 8.829803 -7.157959 15.987762 -15.987762 15.987762c-8.829803 0 -15.987762 -7.157959 -15.987762 -15.987762c0 -8.829773 7.157959 -15.987732 15.987762 -15.987732c8.829803 0 15.987762 7.157959 15.987762 15.987732z" fill-rule="evenodd"/><path fill="#ffffff" d="m356.42978 316.56018c0 13.24469 -10.736938 23.981628 -23.981628 23.981628c-13.24469 0 -23.981628 -10.736938 -23.981628 -23.981628c0 -13.24469 10.736938 -23.981628 23.981628 -23.981628c13.24469 0 23.981628 10.736938 23.981628 23.981628z" fill-rule="evenodd"/><path fill="#000000" fill-opacity="0.0" d="m70.69737 187.65718l0 0c-8.271324 0.625824 -16.541756 -1.2216797 -23.700863 -5.294464m44.61215 63.234085c-3.3260727 1.2796936 -6.8125153 2.1317139 -10.369431 2.5340424m99.71947 25.306229l0 0c-2.5016174 -3.6262817 -4.5961 -7.501251 -6.247757 -11.558929m121.78842 -17.264587c-0.3678589 4.3010864 -1.204071 8.552429 -2.4947205 12.683105m52.099457 -91.04788l0 0c18.752472 8.820602 30.586517 27.261414 30.41919 47.40181m41.3331 -97.887924c-3.0369263 6.8580856 -7.6731567 12.941818 -13.545166 17.7742m-18.958344 -83.726074l0 0c0.5174866 2.7695045 0.7569885 5.580639 0.71517944 8.394432m-87.22122 -18.18613l0 0c1.7649536 -3.872696 4.102356 -7.478554 6.9394836 -10.705305m-71.8418 15.806196l0 0c0.720047 -3.200409 1.8489838 -6.3017693 3.3608093 -9.232643m-79.5311 12.369438l0 0c4.4143677 2.4988708 8.4982605 5.5065346 12.161972 8.956921m-104.53505 61.43875l0 0c-0.9636307 -3.0823517 -1.6733589 -6.2335434 -2.1225395 -9.424065" fill-rule="evenodd"/><path stroke="#000000" stroke-width="3.0" stroke-linejoin="round" stroke-linecap="butt" d="m63.27659 109.22527c-3.2589722 -23.148392 7.4405365 -46.06394 27.558357 -59.022785c20.11782 -12.958851 46.125732 -13.688313 66.9877 -1.8788528l0 0c7.3895416 -13.460384 20.91504 -22.753893 36.485077 -25.069294c15.570053 -2.315401 31.35579 2.6192722 42.582153 13.311314l0 0c6.2951202 -12.203838 18.65593 -20.40328 32.69609 -21.68868c14.040131 -1.2854004 27.772552 4.5251617 36.324158 15.369755l0 0c11.373352 -12.935286 29.468475 -18.38152 46.455597 -13.982105c16.987091 4.399414 29.815186 17.854311 32.933533 34.542725l0 0c13.933594 3.673748 25.540009 13.012764 31.820496 25.60418c6.280487 12.591408 6.618988 27.200043 0.92803955 40.051537c13.721588 17.260902 16.93158 40.2611 8.432068 60.417183c-8.499542 20.156082 -27.43161 34.43976 -49.730988 37.520554c-0.15716553 18.917847 -10.8905945 36.276596 -28.06308 45.38533c-17.172485 9.108704 -38.102448 8.545013 -54.72238 -1.4738464c-7.079315 22.657318 -27.005646 39.3284 -51.169907 42.810577c-24.164276 3.4822083 -48.23456 -6.848694 -61.81143 -26.529327l0 0c-16.64235 9.7005005 -36.611847 12.494934 -55.403725 7.75296c-18.791878 -4.7420044 -34.823166 -16.621002 -44.477486 -32.95729l0 0c-17.006256 1.9236908 -33.449005 -6.592987 -41.16782 -21.323257c-7.718811 -14.730255 -5.0705566 -32.53842 6.6304626 -44.58641l0 0c-15.170847 -8.630615 -22.911953 -25.756714 -19.186628 -42.447662c3.7253246 -16.690964 18.072908 -29.164543 35.56102 -30.916237z" fill-rule="evenodd"/><path stroke="#000000" stroke-width="3.0" stroke-linejoin="round" stroke-linecap="butt" d="m385.68546 386.36032c0 4.4148865 -3.5789795 7.993866 -7.993866 7.993866c-4.4148865 0 -7.993866 -3.5789795 -7.993866 -7.993866c0 -4.414917 3.5789795 -7.9938965 7.993866 -7.9938965c4.4148865 0 7.993866 3.5789795 7.993866 7.9938965z" fill-rule="evenodd"/><path stroke="#000000" stroke-width="3.0" stroke-linejoin="round" stroke-linecap="butt" d="m375.40564 358.1682c0 8.829803 -7.157959 15.987762 -15.987762 15.987762c-8.829803 0 -15.987762 -7.157959 -15.987762 -15.987762c0 -8.829773 7.157959 -15.987732 15.987762 -15.987732c8.829803 0 15.987762 7.157959 15.987762 15.987732z" fill-rule="evenodd"/><path stroke="#000000" stroke-width="3.0" stroke-linejoin="round" stroke-linecap="butt" d="m356.42978 316.56018c0 13.24469 -10.736938 23.981628 -23.981628 23.981628c-13.24469 0 -23.981628 -10.736938 -23.981628 -23.981628c0 -13.24469 10.736938 -23.981628 23.981628 -23.981628c13.24469 0 23.981628 10.736938 23.981628 23.981628z" fill-rule="evenodd"/><path stroke="#000000" stroke-width="3.0" stroke-linejoin="round" stroke-linecap="butt" d="m70.69737 187.65718l0 0c-8.271324 0.625824 -16.541756 -1.2216797 -23.700863 -5.294464m44.61215 63.234085c-3.3260727 1.2796936 -6.8125153 2.1317139 -10.369431 2.5340424m99.71947 25.306229l0 0c-2.5016174 -3.6262817 -4.5961 -7.501251 -6.247757 -11.558929m121.78842 -17.264587c-0.3678589 4.3010864 -1.204071 8.552429 -2.4947205 12.683105m52.099457 -91.04788l0 0c18.752472 8.820602 30.586517 27.261414 30.41919 47.40181m41.3331 -97.887924c-3.0369263 6.8580856 -7.6731567 12.941818 -13.545166 17.7742m-18.958344 -83.726074l0 0c0.5174866 2.7695045 0.7569885 5.580639 0.71517944 8.394432m-87.22122 -18.18613l0 0c1.7649536 -3.872696 4.102356 -7.478554 6.9394836 -10.705305m-71.8418 15.806196l0 0c0.720047 -3.200409 1.8489838 -6.3017693 3.3608093 -9.232643m-79.5311 12.369438l0 0c4.4143677 2.4988708 8.4982605 5.5065346 12.161972 8.956921m-104.53505 61.43875l0 0c-0.9636307 -3.0823517 -1.6733589 -6.2335434 -2.1225395 -9.424065" fill-rule="evenodd"/></g></svg>